<?xml version="1.0" standalone="no"?>
<!DOCTYPE svg PUBLIC "-//W3C//DTD SVG 20010904//EN"
 "http://www.w3.org/TR/2001/REC-SVG-20010904/DTD/svg10.dtd">
<svg version="1.0" xmlns="http://www.w3.org/2000/svg"
 width="600.000000pt" height="600.000000pt" viewBox="0 0 600.000000 600.000000"
 preserveAspectRatio="xMidYMid meet">
<g transform="translate(0.000000,600.000000) scale(0.050000,-0.050000)"
fill="#000000" stroke="none">
<path d="M5330 8521 c-75 -31 -115 -96 -118 -191 l-2 -91 -220 -98 c-121 -53
-620 -275 -1110 -491 -490 -217 -1204 -534 -1588 -704 -586 -259 -709 -307
-763 -297 -41 8 -97 0 -148 -21 -76 -30 -92 -30 -211 0 -362 91 -370 74 -370
-831 l0 -701 65 -64 c47 -46 99 -72 185 -91 65 -14 128 -39 140 -54 12 -17
670 -192 1600 -426 869 -218 2046 -516 2616 -660 649 -165 1064 -261 1110
-257 41 3 144 -11 229 -33 259 -64 355 18 355 303 l0 136 705 355 c388 195
1200 607 1805 914 l1099 560 114 -30 c143 -37 204 -37 277 1 98 51 100 65 100
768 0 797 20 740 -291 813 -1178 275 -5065 1135 -5149 1139 -60 4 -165 20
-233 38 -137 36 -141 36 -197 13z m240 -170 c80 -23 80 -24 32 -49 -41 -23
-50 -22 -66 6 -41 74 -172 15 -150 -68 6 -22 2 -40 -8 -40 -10 0 -18 46 -18
102 l0 101 65 -14 c35 -8 100 -25 145 -38z m2620 -553 c1298 -287 2374 -526
2390 -531 21 -7 -1235 -647 -1270 -647 -3 0 -605 -297 -1338 -659 l-1333 -659
-445 107 c-244 60 -525 127 -624 151 -99 24 -922 223 -1830 443 -907 220
-1738 420 -1846 445 -108 24 -198 51 -200 59 -4 13 321 160 1576 713 1216 536
2236 991 2350 1049 72 36 148 62 170 58 22 -3 1102 -241 2400 -529z m2480
-578 c8 -12 -158 -104 -394 -218 -223 -108 -1111 -545 -1973 -970 -862 -424
-1576 -772 -1585 -772 -63 0 19 51 277 174 344 164 2257 1106 3085 1519 667
333 575 291 590 267z m197 -33 c68 -18 139 -32 158 -31 19 1 35 -7 35 -18 0
-11 -9 -15 -20 -8 -13 8 -20 -206 -20 -629 0 -728 19 -665 -184 -608 l-116 32
0 603 c0 331 -6 622 -13 647 -14 55 -2 55 160 12z m-197 -658 l0 -610 -580
-292 c-319 -161 -670 -339 -780 -397 -152 -79 -2154 -1099 -2209 -1125 -6 -3
-11 219 -11 493 0 569 -5 586 -168 639 l-84 27 366 180 c201 99 447 219 546
266 242 115 2496 1227 2710 1337 94 48 179 89 190 90 13 2 20 -212 20 -608z
m385 -334 c-3 -168 -6 -30 -6 305 0 336 3 473 6 305 3 -168 3 -442 0 -610z
m-9382 266 c205 -57 3239 -793 4297 -1043 735 -174 675 -153 591 -197 -38 -20
-79 -33 -90 -29 -22 7 -1398 340 -2841 687 -462 111 -1167 281 -1567 378
l-728 176 68 43 c37 24 82 38 100 33 18 -6 95 -28 170 -48z m-543 2 l120 -33
5 -697 c5 -563 1 -696 -20 -688 -14 6 -80 21 -146 35 -159 33 -148 -18 -149
745 0 768 -21 697 190 638z m1410 -362 c1419 -345 3767 -912 3855 -930 l65
-14 0 -740 c0 -695 -2 -739 -35 -729 -43 13 -2197 559 -3875 981 -682 172
-1244 319 -1250 327 -5 8 -8 328 -4 711 l5 697 45 -11 c24 -7 562 -138 1194
-292z m3975 -2035 c-3 -207 -6 -43 -6 364 0 407 3 576 6 376 3 -200 3 -533 0
-740z m215 1052 c187 -44 170 33 170 -781 l0 -722 -45 13 c-25 7 -101 27 -170
45 l-125 32 0 729 c0 685 2 728 35 718 19 -5 80 -21 135 -34z m221 -771 c-5
-369 -14 -677 -20 -683 -6 -6 -11 297 -11 673 0 445 7 683 20 683 13 0 17
-228 11 -673z"/>
<path d="M10824 7116 c-42 -42 -29 -132 25 -167 66 -43 131 -10 131 69 0 93
-99 155 -156 98z m117 -58 c31 -57 -4 -92 -48 -48 -18 18 -33 46 -33 61 0 44
56 35 81 -13z"/>
<path d="M10802 6075 c-22 -60 13 -133 72 -148 87 -22 134 63 85 154 -30 57
-135 53 -157 -6z m139 -37 c12 -23 17 -47 10 -54 -19 -19 -80 25 -87 63 -10
48 50 41 77 -9z"/>
<path d="M1035 6425 c-49 -11 -67 -101 -32 -164 32 -57 104 -77 148 -40 80 66
-12 228 -116 204z m84 -64 c26 -48 27 -101 1 -101 -29 0 -85 95 -71 119 20 32
47 25 70 -18z"/>
<path d="M1001 5321 c-39 -73 10 -201 78 -201 88 0 133 78 92 157 -45 89 -134
112 -170 44z m126 -43 c17 -24 25 -55 19 -70 -17 -45 -86 5 -86 63 0 60 28 63
67 7z"/>
<path d="M1365 6317 c-44 -45 -35 -1242 10 -1281 19 -16 413 -125 875 -241
462 -117 1576 -399 2475 -626 1350 -343 1639 -410 1665 -389 41 34 46 1272 5
1325 -17 22 -404 124 -1235 324 -1352 325 -3668 886 -3730 902 -22 6 -51 0
-65 -14z m1032 -258 c546 -133 1317 -321 1713 -418 396 -97 990 -241 1320
-320 330 -80 677 -164 770 -188 l170 -43 5 -629 c3 -346 -2 -636 -12 -646 -10
-10 -318 59 -725 163 -390 99 -1499 379 -2466 621 -967 243 -1765 447 -1775
453 -19 11 -24 1248 -5 1248 6 0 458 -109 1005 -241z"/>
<path d="M1433 6227 c-26 -27 -15 -1101 12 -1122 14 -10 574 -156 1245 -323
671 -167 1236 -308 1255 -314 33 -10 35 27 35 577 l0 589 -115 25 c-103 23
-1045 250 -2041 492 -417 101 -373 93 -391 76z m622 -200 l545 -134 0 -106 c0
-59 -7 -107 -15 -106 -8 0 -262 62 -565 136 l-550 136 -6 103 c-8 129 -65 132
591 -29z m5 -257 c292 -71 546 -130 565 -130 19 0 35 -10 35 -22 0 -14 -17
-18 -45 -10 -25 8 -283 72 -575 143 -552 135 -590 145 -540 147 17 1 269 -56
560 -128z m594 -55 c-4 -36 -8 -6 -8 65 0 72 4 101 8 65 5 -36 5 -94 0 -130z
m66 -348 c0 -294 -6 -528 -13 -521 -22 22 -29 1054 -7 1054 13 0 20 -191 20
-533z m-664 346 c322 -80 580 -150 575 -156 -15 -15 -1171 269 -1171 288 0 8
2 15 5 14 3 0 269 -66 591 -146z m1144 38 c215 -53 453 -111 530 -129 l140
-34 6 -112 6 -111 -276 68 c-152 37 -402 98 -556 134 l-280 67 -6 116 c-5 88
0 113 20 105 14 -5 202 -52 416 -104z m-1145 -105 l545 -135 0 -106 c0 -58 -7
-105 -15 -104 -8 0 -262 62 -565 137 l-550 136 -6 103 c-8 128 -64 131 591
-31z m1330 -200 c305 -74 555 -140 555 -147 0 -7 -250 49 -555 124 -305 75
-570 136 -589 137 -18 0 -40 10 -48 23 -10 16 0 20 34 11 26 -7 298 -74 603
-148z m549 -31 c-4 -36 -8 -11 -8 55 0 66 4 95 8 65 5 -30 5 -84 0 -120z
m-1312 -155 c21 0 38 -10 38 -21 0 -12 -11 -19 -25 -15 -14 3 -279 69 -590
145 -311 77 -565 145 -565 152 0 8 248 -48 552 -124 304 -75 569 -137 590
-137z m671 149 c295 -71 558 -135 584 -140 26 -6 43 -16 36 -22 -14 -15 -1136
251 -1162 275 -28 26 -41 29 542 -113z m-639 -74 c-4 -36 -8 -6 -8 65 0 72 4
101 8 65 5 -36 5 -94 0 -130z m-596 -3 c323 -80 579 -151 570 -156 -25 -13
-1168 269 -1168 289 0 8 2 15 5 14 3 0 269 -66 593 -147z m1322 -12 c237 -56
446 -106 465 -112 29 -9 59 -232 30 -227 -3 0 -252 62 -555 137 l-550 136 -6
112 -6 112 96 -28 c53 -15 290 -74 526 -130z m-1335 -53 l555 -136 0 -105 c0
-58 -7 -106 -15 -105 -8 0 -262 62 -565 138 l-550 137 -6 102 c-3 56 1 102 10
103 9 0 266 -60 571 -134z m1320 -199 c316 -76 575 -146 575 -155 0 -10 -15
-11 -34 -4 -52 20 -1086 271 -1117 271 -15 0 -33 11 -41 23 -9 15 -4 20 14 13
15 -5 287 -72 603 -148z m569 -33 c-4 -36 -8 -11 -8 55 0 66 4 95 8 65 5 -30
5 -84 0 -120z m-1864 -26 c600 -148 610 -150 578 -162 -32 -12 -1153 271
-1178 296 -14 15 -8 18 20 10 22 -6 283 -71 580 -144z m1299 -1 c307 -76 545
-141 528 -144 -43 -8 -1122 256 -1147 281 -13 14 -7 17 20 11 22 -5 292 -72
599 -148z m-715 -53 c-4 -36 -8 -6 -8 65 0 72 4 101 8 65 5 -36 5 -94 0 -130z
m1226 -248 c0 -59 -2 -107 -5 -107 -3 0 -252 62 -555 136 l-550 135 -6 110 -6
109 561 -138 561 -138 0 -107z m-502 -26 c529 -131 632 -160 560 -162 -58 -1
-1198 291 -1198 307 0 9 16 12 35 6 19 -6 291 -74 603 -151z m556 -26 c-4 -36
-8 -11 -8 55 0 66 4 95 8 65 5 -30 5 -84 0 -120z"/>
<path d="M4140 4990 c0 -371 2 -390 38 -390 53 0 53 -5 46 410 -5 352 -8 370
-45 370 -37 0 -39 -16 -39 -390z"/>
<path d="M4305 4957 c5 -352 8 -387 40 -393 34 -7 36 19 30 379 -5 352 -8 387
-40 393 -34 7 -36 -19 -30 -379z m30 -163 c-5 -46 -8 -3 -8 96 0 99 4 137 8
84 4 -52 4 -133 0 -180z"/>
<path d="M4460 4911 c0 -379 1 -391 40 -391 59 0 54 765 -5 776 -32 6 -35 -22
-35 -385z"/>
<path d="M4632 5264 c-7 -12 -20 -685 -14 -759 1 -14 20 -25 42 -25 53 0 64
767 11 787 -17 6 -34 5 -39 -3z m23 -570 c-4 -90 -7 -11 -7 176 0 187 3 261 7
164 4 -97 4 -250 0 -340z"/>
<path d="M4792 5223 c-10 -16 -20 -607 -14 -748 1 -21 18 -35 42 -35 52 0 63
736 12 779 -18 14 -33 16 -40 4z m23 -488 c-4 -58 -8 -10 -8 105 0 116 4 163
8 105 4 -58 4 -152 0 -210z"/>
<path d="M5119 4408 c-33 -39 -3 -95 55 -104 50 -7 74 44 45 97 -25 47 -65 50
-100 7z"/>
<path d="M5320 4371 c-38 -46 -16 -101 40 -101 36 0 52 12 56 44 8 57 -61 98
-96 57z"/>
<path d="M5833 4351 c-71 -66 -72 -166 -1 -249 114 -136 323 -24 279 150 -34
137 -181 189 -278 99z m156 -75 c56 -80 30 -196 -44 -196 -44 0 -125 94 -125
145 0 97 113 131 169 51z"/>
<path d="M5493 4311 c-28 -74 51 -135 105 -81 24 23 26 39 10 65 -29 46 -100
56 -115 16z"/>
<path d="M6684 5036 c-37 -37 -28 -132 16 -176 104 -104 216 31 129 156 -34
48 -107 58 -145 20z m125 -60 c20 -30 24 -51 11 -64 -26 -26 -111 55 -91 86
20 34 46 27 80 -22z"/>
<path d="M6681 3911 c-42 -50 -17 -156 44 -190 71 -40 123 -10 131 75 11 106
-114 189 -175 115z m130 -60 c31 -48 26 -91 -12 -91 -28 0 -84 96 -70 119 21
34 48 24 82 -28z"/>
</g>
</svg>
